<svg width="352" height="352" viewBox="0 0 352 352" xmlns="http://www.w3.org/2000/svg">
<path d="M272.497 125.003C252.631 124.735 236 141.099 236 160.926C236 168.828 238.559 176.133 242.892 182.065C249.845 193.619 253.149 199.002 254.146 206.055C254.573 209.079 257.163 211.33 260.223 211.33H283.777C286.838 211.33 289.427 209.079 289.854 206.055C290.851 199.002 294.154 193.619 301.108 182.065C305.441 176.133 308 168.828 308 160.926C308 141.25 292.15 125.269 272.497 125.003Z" fill="#67647E"/>
<path fill-rule="evenodd" clip-rule="evenodd" d="M248.574 182.698C253.312 193.805 255.578 199.116 256.271 206.034C256.574 209.057 258.409 211.307 260.577 211.308H259.7C256.872 211.068 254.549 208.905 254.146 206.055C253.168 199.136 249.97 193.824 243.284 182.716C243.155 182.501 243.024 182.284 242.892 182.065C238.559 176.133 236 168.828 236 160.925C236 144.925 246.831 131.18 261.453 126.612C251.091 131.177 243.414 144.918 243.414 160.916C243.414 168.817 245.227 176.12 248.297 182.05C248.391 182.268 248.483 182.484 248.574 182.698Z" fill="black" fill-opacity="0.1"/>
<path d="M259 219H285V219C285 223.418 281.418 227 277 227H267C262.582 227 259 223.418 259 219V219Z" fill="#67647E"/>
<rect x="256.712" y="213.051" width="30.576" height="6.97437" rx="3.48718" fill="#868686"/>
<rect x="254.091" y="209.564" width="35.8176" height="6.97435" rx="3.48717" fill="#A8A8A8"/>
<rect x="44" y="36" width="48" height="280" fill="#363446"/>
<rect x="148" y="36" width="32" height="280" fill="#428267"/>
<rect x="148" y="68" width="32" height="24" fill="#53A381"/>
<rect x="148" y="116" width="32" height="24" fill="#53A381"/>
<rect x="148" y="164" width="32" height="24" fill="#53A381"/>
<rect x="148" y="212" width="32" height="24" fill="#53A381"/>
<rect x="148" y="260" width="32" height="24" fill="#53A381"/>
</svg>
