<svg width="352" height="352" viewBox="0 0 352 352" xmlns="http://www.w3.org/2000/svg">
<rect x="152" y="36" width="48" height="280" fill="#363446"/>
<path fill-rule="evenodd" clip-rule="evenodd" d="M352 209.768C346.268 211.047 341.117 213.863 337 217.762C331.265 212.331 323.522 209 315 209C297.327 209 283 223.327 283 241C283 258.673 297.327 273 315 273C323.522 273 331.265 269.669 337 264.238C341.117 268.137 346.268 270.953 352 272.232V209.768Z" fill="#587BAB"/>
<rect x="174" width="4" height="36" fill="#67647E"/>
<circle cx="176" cy="95" r="24" fill="#EA9F2E"/>
<rect x="166" y="93" width="20" height="4" fill="white"/>
<circle cx="136" cy="111" r="24" fill="#EA9F2E"/>
<rect x="126" y="109" width="20" height="4" fill="white"/>
<circle cx="156" cy="145" r="24" fill="#587BAB"/>
<path d="M155.97 155.26C154.289 155.26 152.833 154.887 151.602 154.142C150.371 153.397 149.427 152.322 148.768 150.918C148.127 149.514 147.806 147.841 147.806 145.9C147.806 143.959 148.127 142.286 148.768 140.882C149.427 139.478 150.371 138.403 151.602 137.658C152.833 136.913 154.289 136.54 155.97 136.54C157.669 136.54 159.125 136.913 160.338 137.658C161.569 138.403 162.505 139.478 163.146 140.882C163.805 142.286 164.134 143.959 164.134 145.9C164.134 147.841 163.805 149.514 163.146 150.918C162.505 152.322 161.569 153.397 160.338 154.142C159.125 154.887 157.669 155.26 155.97 155.26ZM155.97 152.296C157.357 152.296 158.44 151.733 159.22 150.606C160.017 149.462 160.416 147.893 160.416 145.9C160.416 143.907 160.017 142.347 159.22 141.22C158.44 140.076 157.357 139.504 155.97 139.504C154.601 139.504 153.517 140.076 152.72 141.22C151.94 142.347 151.55 143.907 151.55 145.9C151.55 147.893 151.94 149.462 152.72 150.606C153.517 151.733 154.601 152.296 155.97 152.296Z" fill="white"/>
<circle cx="198" cy="200" r="24" fill="#587BAB"/>
<path d="M197.97 210.26C196.289 210.26 194.833 209.887 193.602 209.142C192.371 208.397 191.427 207.322 190.768 205.918C190.127 204.514 189.806 202.841 189.806 200.9C189.806 198.959 190.127 197.286 190.768 195.882C191.427 194.478 192.371 193.403 193.602 192.658C194.833 191.913 196.289 191.54 197.97 191.54C199.669 191.54 201.125 191.913 202.338 192.658C203.569 193.403 204.505 194.478 205.146 195.882C205.805 197.286 206.134 198.959 206.134 200.9C206.134 202.841 205.805 204.514 205.146 205.918C204.505 207.322 203.569 208.397 202.338 209.142C201.125 209.887 199.669 210.26 197.97 210.26ZM197.97 207.296C199.357 207.296 200.44 206.733 201.22 205.606C202.017 204.462 202.416 202.893 202.416 200.9C202.416 198.907 202.017 197.347 201.22 196.22C200.44 195.076 199.357 194.504 197.97 194.504C196.601 194.504 195.517 195.076 194.72 196.22C193.94 197.347 193.55 198.907 193.55 200.9C193.55 202.893 193.94 204.462 194.72 205.606C195.517 206.733 196.601 207.296 197.97 207.296Z" fill="white"/>
<path fill-rule="evenodd" clip-rule="evenodd" d="M152.756 2.03205e-06C152.263 1.91772 152 3.92821 152 6C152 19.2548 162.745 30 176 30C189.255 30 200 19.2548 200 6C200 3.9282 199.737 1.91772 199.244 0L152.756 2.03205e-06Z" fill="#EA9F2E"/>
<rect x="166" y="4" width="20" height="4" fill="white"/>
<circle cx="59" cy="241" r="24" fill="#587BAB"/>
<path d="M49.97 251.26C48.2887 251.26 46.8327 250.887 45.602 250.142C44.3713 249.397 43.4267 248.322 42.768 246.918C42.1267 245.514 41.806 243.841 41.806 241.9C41.806 239.959 42.1267 238.286 42.768 236.882C43.4267 235.478 44.3713 234.403 45.602 233.658C46.8327 232.913 48.2887 232.54 49.97 232.54C51.6687 232.54 53.1247 232.913 54.338 233.658C55.5687 234.403 56.5047 235.478 57.146 236.882C57.8047 238.286 58.134 239.959 58.134 241.9C58.134 243.841 57.8047 245.514 57.146 246.918C56.5047 248.322 55.5687 249.397 54.338 250.142C53.1247 250.887 51.6687 251.26 49.97 251.26ZM49.97 248.296C51.3567 248.296 52.44 247.733 53.22 246.606C54.0173 245.462 54.416 243.893 54.416 241.9C54.416 239.907 54.0173 238.347 53.22 237.22C52.44 236.076 51.3567 235.504 49.97 235.504C48.6007 235.504 47.5173 236.076 46.72 237.22C45.94 238.347 45.55 239.907 45.55 241.9C45.55 243.893 45.94 245.462 46.72 246.606C47.5173 247.733 48.6007 248.296 49.97 248.296ZM60.1992 243.486C60.9445 242.983 61.7245 242.351 62.5392 241.588C63.3712 240.808 64.0732 239.976 64.6452 239.092C65.2345 238.191 65.5292 237.35 65.5292 236.57C65.5292 236.189 65.3992 235.885 65.1392 235.66C64.8792 235.417 64.5152 235.296 64.0472 235.296C63.1112 235.296 62.2705 235.816 61.5252 236.856L59.8352 235.14C60.3032 234.343 60.9358 233.736 61.7332 233.32C62.5305 232.887 63.4145 232.67 64.3852 232.67C65.8238 232.67 66.9332 233.008 67.7132 233.684C68.5105 234.343 68.9092 235.27 68.9092 236.466C68.9092 237.367 68.5538 238.373 67.8432 239.482C67.1498 240.574 66.1012 241.796 64.6972 243.148H69.2472V245.592H60.1992V243.486ZM71.033 240.236V238.468H78.547V240.236H71.033Z" fill="white"/>
<circle cx="39" cy="219" r="12" fill="#EA9F2E"/>
<circle cx="79" cy="219" r="12" fill="#EA9F2E"/>
</svg>
