<svg width="352" height="352" viewBox="0 0 352 352" xmlns="http://www.w3.org/2000/svg">
<path d="M176.497 226.003C156.631 225.735 140 242.099 140 261.926C140 269.828 142.559 277.133 146.892 283.065C153.845 294.619 157.149 300.002 158.146 307.055C158.573 310.079 161.163 312.33 164.223 312.33H187.777C190.838 312.33 193.427 310.079 193.854 307.055C194.851 300.002 198.154 294.619 205.108 283.065C209.441 277.133 212 269.828 212 261.926C212 242.25 196.15 226.269 176.497 226.003Z" fill="#FFC876"/>
<path fill-rule="evenodd" clip-rule="evenodd" d="M152.574 283.698C157.312 294.805 159.578 300.116 160.271 307.034C160.574 310.057 162.409 312.307 164.577 312.308H163.7C160.872 312.068 158.549 309.905 158.146 307.055C157.168 300.136 153.97 294.824 147.284 283.716C147.155 283.501 147.024 283.284 146.892 283.065C142.559 277.133 140 269.828 140 261.925C140 245.925 150.831 232.18 165.453 227.612C155.091 232.177 147.414 245.918 147.414 261.916C147.414 269.817 149.227 277.12 152.297 283.05C152.391 283.268 152.483 283.484 152.574 283.698Z" fill="black" fill-opacity="0.1"/>
<path d="M163 320H189V320C189 324.418 185.418 328 181 328H171C166.582 328 163 324.418 163 320V320Z" fill="#67647E"/>
<path d="M160.712 317.538C160.712 315.613 162.273 314.051 164.199 314.051H187.801C189.727 314.051 191.288 315.613 191.288 317.538C191.288 319.464 189.727 321.026 187.801 321.026H164.199C162.273 321.026 160.712 319.464 160.712 317.538Z" fill="#868686"/>
<path d="M158.091 314.051C158.091 312.125 159.652 310.564 161.578 310.564H190.422C192.347 310.564 193.909 312.125 193.909 314.051C193.909 315.977 192.347 317.538 190.422 317.538H161.578C159.652 317.538 158.091 315.977 158.091 314.051Z" fill="#A8A8A8"/>
<path d="M171.652 254.6H179.608L178.828 279.612H172.432L171.652 254.6ZM175.656 291.52C174.235 291.52 173.073 291.104 172.172 290.272C171.271 289.405 170.82 288.296 170.82 286.944C170.82 285.592 171.271 284.5 172.172 283.668C173.073 282.801 174.235 282.368 175.656 282.368C177.077 282.368 178.239 282.801 179.14 283.668C180.041 284.5 180.492 285.592 180.492 286.944C180.492 288.296 180.041 289.405 179.14 290.272C178.239 291.104 177.077 291.52 175.656 291.52Z" fill="#4F4B68"/>
<path d="M293.652 85.4493C274.532 80.0485 254.233 91.55 249.101 110.701C247.056 118.335 247.637 126.053 250.287 132.904C254.013 145.864 255.811 151.918 254.948 158.989C254.579 162.021 256.497 164.865 259.453 165.657L282.205 171.754C285.161 172.546 288.245 171.042 289.44 168.232C292.228 161.677 296.812 157.332 306.52 147.971C312.24 143.363 316.603 136.97 318.648 129.336C323.74 110.331 312.567 90.7926 293.652 85.4493Z" fill="#67647E"/>
<path fill-rule="evenodd" clip-rule="evenodd" d="M255.612 134.986C257.314 146.941 258.128 152.658 257.007 159.519C256.517 162.518 257.707 165.166 259.801 165.728L258.954 165.501C256.284 164.538 254.6 161.847 254.948 158.989C255.794 152.053 254.081 146.094 250.497 133.635C250.428 133.394 250.358 133.15 250.287 132.904C247.637 126.053 247.056 118.335 249.101 110.701C253.243 95.246 267.262 84.7727 282.568 84.1445C271.378 85.8721 260.406 97.1581 256.265 112.611C254.22 120.243 254.082 127.766 255.512 134.289C255.546 134.524 255.579 134.756 255.612 134.986Z" fill="black" fill-opacity="0.1"/>
<path d="M256.287 172.75L281.401 179.479V179.479C280.257 183.747 275.87 186.28 271.603 185.136L261.943 182.548C257.676 181.404 255.143 177.018 256.287 172.75V172.75Z" fill="#67647E"/>
<path d="M254.714 169.78C255.212 167.92 257.124 166.816 258.985 167.314L281.782 173.423C283.642 173.921 284.746 175.833 284.248 177.694C283.749 179.554 281.837 180.658 279.977 180.159L257.179 174.051C255.319 173.552 254.215 171.64 254.714 169.78Z" fill="#868686"/>
<path d="M253.085 165.733C253.583 163.873 255.495 162.769 257.356 163.268L285.216 170.733C287.076 171.231 288.18 173.143 287.682 175.004C287.183 176.864 285.271 177.968 283.411 177.469L255.551 170.004C253.69 169.506 252.586 167.594 253.085 165.733Z" fill="#A8A8A8"/>
<path d="M276.8 138.479C276.834 137.95 276.95 137.317 277.147 136.58C277.515 135.208 278.162 133.999 279.087 132.955C280.047 131.92 281.349 130.744 282.994 129.426C284.494 128.249 285.646 127.23 286.451 126.369C287.265 125.474 287.82 124.474 288.116 123.369C288.493 121.963 288.383 120.767 287.785 119.781C287.222 118.805 286.253 118.133 284.88 117.765C283.675 117.442 282.378 117.525 280.991 118.015C279.646 118.48 278.409 119.279 277.28 120.412L274.914 115.579C276.361 114.064 278.157 113.056 280.301 112.554C282.445 112.052 284.706 112.119 287.084 112.756C290.399 113.645 292.791 115.165 294.26 117.317C295.729 119.469 296.086 121.952 295.333 124.765C294.929 126.271 294.21 127.55 293.174 128.601C292.148 129.618 290.729 130.763 288.916 132.036C287.282 133.177 285.999 134.215 285.067 135.15C284.144 136.051 283.512 137.137 283.171 138.41C283.072 138.778 282.957 139.34 282.827 140.094L276.8 138.479ZM277.494 148.948C276.255 148.616 275.345 147.995 274.763 147.085C274.224 146.151 274.106 145.115 274.411 143.976C274.717 142.838 275.332 142.016 276.257 141.51C277.224 140.98 278.328 140.881 279.567 141.212C280.772 141.536 281.661 142.169 282.234 143.112C282.816 144.021 282.954 145.045 282.649 146.184C282.344 147.322 281.708 148.157 280.74 148.687C279.781 149.184 278.699 149.271 277.494 148.948Z" fill="white"/>
<path d="M26.6092 139.754C9.2705 149.455 3.04927 171.942 12.9628 189.112C16.914 195.956 22.7824 201.003 29.5008 203.973C41.2999 210.503 46.8519 213.513 51.2422 219.123C53.1242 221.528 56.4921 222.182 59.1422 220.652L79.5413 208.875C82.1916 207.345 83.3083 204.101 82.1666 201.268C79.5036 194.662 79.6725 188.348 79.9176 174.865C80.7043 167.562 79.2679 159.956 75.3166 153.112C65.4786 136.073 43.7622 130.158 26.6092 139.754Z" fill="#67647E"/>
<path fill-rule="evenodd" clip-rule="evenodd" d="M34.7384 201.681C44.3956 208.931 49.0136 212.397 53.0727 218.042C54.8465 220.508 57.5605 221.54 59.4386 220.456L58.6788 220.894C56.1101 222.101 53.0162 221.389 51.2422 219.123C46.9354 213.619 41.5105 210.618 30.1667 204.342C29.947 204.22 29.7251 204.097 29.5009 203.973C22.7825 201.003 16.9141 195.956 12.9629 189.112C4.96257 175.255 7.47025 157.936 17.8489 146.669C11.1576 155.804 11.3799 171.542 19.379 185.397C23.3293 192.239 28.5509 197.657 34.1749 201.258C34.3646 201.4 34.5525 201.541 34.7384 201.681Z" fill="black" fill-opacity="0.1"/>
<path d="M61.9187 227.906L84.4354 214.906V214.906C86.6445 218.733 85.3335 223.625 81.5072 225.835L72.8469 230.835C69.0206 233.044 64.1278 231.733 61.9187 227.906V227.906Z" fill="#67647E"/>
<path d="M58.7062 226.919C57.7433 225.251 58.3147 223.118 59.9826 222.155L80.4223 210.354C82.0902 209.391 84.2229 209.963 85.1859 211.631C86.1488 213.299 85.5774 215.431 83.9095 216.394L63.4698 228.195C61.8019 229.158 59.6692 228.587 58.7062 226.919Z" fill="#868686"/>
<path d="M54.6931 225.209C53.7301 223.541 54.3016 221.408 55.9694 220.445L80.9485 206.024C82.6164 205.061 84.7491 205.632 85.712 207.3C86.675 208.968 86.1035 211.101 84.4356 212.064L59.4566 226.485C57.7887 227.448 55.656 226.877 54.6931 225.209Z" fill="#A8A8A8"/>
<path d="M52.1904 189.169C51.8403 188.77 51.4746 188.241 51.0933 187.58C50.3826 186.349 49.9855 185.038 49.9019 183.645C49.8483 182.235 49.9372 180.482 50.1687 178.387C50.3968 176.494 50.491 174.958 50.4513 173.78C50.3944 172.572 50.0799 171.473 49.5079 170.482C48.7799 169.221 47.8563 168.454 46.7371 168.179C45.6479 167.887 44.4878 168.097 43.2569 168.807C42.1761 169.431 41.3183 170.407 40.6836 171.734C40.0615 173.014 39.7518 174.454 39.7547 176.053L34.6644 174.309C34.6164 172.215 35.173 170.232 36.3342 168.361C37.4955 166.49 39.1419 164.939 41.2735 163.708C44.2457 161.992 47.0121 161.375 49.5727 161.859C52.1333 162.342 54.1416 163.844 55.5976 166.366C56.3776 167.717 56.773 169.13 56.7839 170.605C56.7774 172.05 56.5834 173.863 56.2018 176.045C55.8536 178.007 55.6804 179.648 55.6819 180.968C55.6662 182.258 55.9876 183.474 56.6463 184.614C56.837 184.945 57.153 185.423 57.5944 186.049L52.1904 189.169ZM60.0835 196.08C58.9727 196.721 57.89 196.926 56.8355 196.694C55.7937 196.415 54.9781 195.765 54.3888 194.744C53.7995 193.724 53.653 192.707 53.9495 191.696C54.2587 190.636 54.9687 189.786 56.0795 189.145C57.1603 188.521 58.2367 188.34 59.3085 188.602C60.363 188.833 61.1849 189.46 61.7743 190.48C62.3636 191.501 62.5037 192.541 62.1945 193.6C61.868 194.629 61.1643 195.456 60.0835 196.08Z" fill="white"/>
<path d="M135.958 1.77948C116.7 6.66206 104.87 26.7725 110.002 45.924C112.047 53.5571 116.41 59.9509 122.13 64.559C131.837 73.9197 136.421 78.2643 139.21 84.8191C140.405 87.6292 143.489 89.1333 146.445 88.3414L169.197 82.2449C172.153 81.4529 174.071 78.6085 173.702 75.5771C172.839 68.5065 174.636 62.4517 178.363 49.4915C181.013 42.6404 181.594 34.9223 179.549 27.289C174.456 8.28394 155.011 -3.05051 135.958 1.77948Z" fill="#67647E"/>
<path fill-rule="evenodd" clip-rule="evenodd" d="M127.783 63.7001C135.235 73.2022 138.798 77.746 141.258 84.2487C142.333 87.0904 144.687 88.7893 146.782 88.2282L145.935 88.4553C143.141 88.9562 140.337 87.4678 139.21 84.819C136.474 78.3887 132.011 74.0855 122.678 65.0871C122.497 64.9128 122.315 64.7368 122.13 64.559C116.41 59.9509 112.047 53.557 110.002 45.9239C105.861 30.4686 112.766 14.3886 125.707 6.19149C116.879 13.283 113.021 28.5428 117.161 43.9959C119.206 51.6273 122.848 58.2121 127.348 63.1456C127.494 63.3323 127.639 63.5171 127.783 63.7001Z" fill="black" fill-opacity="0.1"/>
<path d="M147.249 96.0667L172.363 89.3374V89.3374C173.507 93.6051 170.974 97.9918 166.706 99.1354L157.047 101.724C152.779 102.867 148.393 100.334 147.249 96.0667V96.0667Z" fill="#67647E"/>
<path d="M144.402 94.2813C143.904 92.421 145.008 90.5088 146.868 90.0104L169.665 83.9018C171.526 83.4033 173.438 84.5073 173.936 86.3676C174.435 88.2279 173.331 90.14 171.47 90.6385L148.673 96.7471C146.813 97.2455 144.901 96.1416 144.402 94.2813Z" fill="#868686"/>
<path d="M140.968 91.5912C140.47 89.7309 141.573 87.8188 143.434 87.3203L171.294 79.8551C173.155 79.3566 175.067 80.4606 175.565 82.3209C176.064 84.1812 174.96 86.0933 173.099 86.5918L145.239 94.057C143.379 94.5555 141.466 93.4515 140.968 91.5912Z" fill="#A8A8A8"/>
<path d="M147.878 56.131C147.643 55.6557 147.427 55.0497 147.23 54.313C146.862 52.9401 146.818 51.5701 147.098 50.2032C147.411 48.8272 147.95 47.1573 148.716 45.1935C149.426 43.4241 149.915 41.9653 150.181 40.8172C150.439 39.6356 150.42 38.4923 150.124 37.3873C149.747 35.9809 149.053 35.0003 148.043 34.4454C147.067 33.8816 145.892 33.7837 144.519 34.1515C143.314 34.4745 142.233 35.1949 141.276 36.3126C140.344 37.3878 139.672 38.6983 139.261 40.2441L134.796 37.2415C135.291 35.2065 136.342 33.4356 137.948 31.9286C139.554 30.4215 141.546 29.3495 143.923 28.7125C147.238 27.8242 150.07 27.9447 152.418 29.0741C154.767 30.2035 156.318 32.1745 157.071 34.9873C157.475 36.4942 157.491 37.9613 157.12 39.3886C156.74 40.7825 156.083 42.4838 155.15 44.4925C154.306 46.2978 153.714 47.8382 153.374 49.1137C153.024 50.3557 153.02 51.613 153.361 52.8854C153.46 53.2537 153.642 53.7973 153.906 54.516L147.878 56.131ZM153.714 64.8498C152.475 65.1818 151.376 65.0994 150.418 64.6025C149.484 64.0633 148.864 63.2244 148.559 62.0859C148.254 60.9473 148.375 59.9278 148.924 59.0272C149.496 58.0842 150.402 57.4467 151.641 57.1147C152.847 56.7917 153.933 56.8953 154.901 57.4256C155.859 57.9225 156.491 58.7401 156.796 59.8786C157.101 61.0171 156.968 62.0579 156.395 63.001C155.813 63.9105 154.919 64.5268 153.714 64.8498Z" fill="white"/>
</svg>
