<svg width="108" height="64" viewBox="0 0 108 64" xmlns="http://www.w3.org/2000/svg">
<path fill-rule="evenodd" clip-rule="evenodd" d="M54 55.238C48.2653 60.669 40.5217 64 32 64C14.3269 64 0 49.6731 0 32C0 14.3269 14.3269 0 32 0C40.5217 0 48.2653 3.33101 54 8.762C59.7347 3.33101 67.4783 0 76 0C93.6731 0 108 14.3269 108 32C108 49.6731 93.6731 64 76 64C67.4783 64 59.7347 60.669 54 55.238Z" fill="#C04352"/>
<path d="M37.176 20.6H41.784V29.752H50.392V20.6H54.968V43H50.392V33.432H41.784V43H37.176V20.6ZM58.6923 45.272C59.6096 44.6533 60.5696 43.8747 61.5723 42.936C62.5963 41.976 63.4603 40.952 64.1643 39.864C64.8896 38.7547 65.2523 37.72 65.2523 36.76C65.2523 36.2907 65.0923 35.9173 64.7723 35.64C64.4523 35.3413 64.0043 35.192 63.4283 35.192C62.2763 35.192 61.2416 35.832 60.3243 37.112L58.2443 35C58.8203 34.0187 59.5989 33.272 60.5803 32.76C61.5616 32.2267 62.6496 31.96 63.8443 31.96C65.6149 31.96 66.9803 32.376 67.9403 33.208C68.9216 34.0187 69.4123 35.16 69.4123 36.632C69.4123 37.7413 68.9749 38.9787 68.1003 40.344C67.2469 41.688 65.9563 43.192 64.2283 44.856H69.8283V47.864H58.6923V45.272Z" fill="white"/>
</svg>
