<svg width="84" height="86" viewBox="0 0 84 86" xmlns="http://www.w3.org/2000/svg">
<circle cx="64" cy="62" r="20" fill="#C04352"/>
<circle cx="20" cy="62" r="20" fill="#C04352"/>
<path d="M74 53.5C74 71.1731 59.6731 86 42 86C24.3269 86 10 71.1731 10 53.5C10 31 42 0 42 0C42 0 74 31 74 53.5Z" fill="#587BAB"/>
<path d="M19.768 44.3H23.512V51.736H30.506V44.3H34.224V62.5H30.506V54.726H23.512V62.5H19.768V44.3ZM37.25 64.346C37.9953 63.8433 38.7753 63.2107 39.59 62.448C40.422 61.668 41.124 60.836 41.696 59.952C42.2853 59.0507 42.58 58.21 42.58 57.43C42.58 57.0487 42.45 56.7453 42.19 56.52C41.93 56.2773 41.566 56.156 41.098 56.156C40.162 56.156 39.3213 56.676 38.576 57.716L36.886 56C37.354 55.2027 37.9866 54.596 38.784 54.18C39.5813 53.7467 40.4653 53.53 41.436 53.53C42.8746 53.53 43.984 53.868 44.764 54.544C45.5613 55.2027 45.96 56.13 45.96 57.326C45.96 58.2273 45.6046 59.2327 44.894 60.342C44.2006 61.434 43.152 62.656 41.748 64.008H46.298V66.452H37.25V64.346ZM56.1438 62.76C54.4625 62.76 53.0065 62.3873 51.7758 61.642C50.5452 60.8967 49.6005 59.822 48.9418 58.418C48.3005 57.014 47.9798 55.3413 47.9798 53.4C47.9798 51.4587 48.3005 49.786 48.9418 48.382C49.6005 46.978 50.5452 45.9033 51.7758 45.158C53.0065 44.4127 54.4625 44.04 56.1438 44.04C57.8425 44.04 59.2985 44.4127 60.5118 45.158C61.7425 45.9033 62.6785 46.978 63.3198 48.382C63.9785 49.786 64.3078 51.4587 64.3078 53.4C64.3078 55.3413 63.9785 57.014 63.3198 58.418C62.6785 59.822 61.7425 60.8967 60.5118 61.642C59.2985 62.3873 57.8425 62.76 56.1438 62.76ZM56.1438 59.796C57.5305 59.796 58.6138 59.2327 59.3938 58.106C60.1912 56.962 60.5898 55.3933 60.5898 53.4C60.5898 51.4067 60.1912 49.8467 59.3938 48.72C58.6138 47.576 57.5305 47.004 56.1438 47.004C54.7745 47.004 53.6912 47.576 52.8938 48.72C52.1138 49.8467 51.7238 51.4067 51.7238 53.4C51.7238 55.3933 52.1138 56.962 52.8938 58.106C53.6912 59.2327 54.7745 59.796 56.1438 59.796Z" fill="white"/>
</svg>
