<svg width="48" height="48" viewBox="0 0 48 48" xmlns="http://www.w3.org/2000/svg">
<circle cx="24" cy="24" r="24" fill="#587BAB"/>
<path d="M23.97 34.26C22.2887 34.26 20.8327 33.8873 19.602 33.142C18.3713 32.3967 17.4267 31.322 16.768 29.918C16.1267 28.514 15.806 26.8413 15.806 24.9C15.806 22.9587 16.1267 21.286 16.768 19.882C17.4267 18.478 18.3713 17.4033 19.602 16.658C20.8327 15.9127 22.2887 15.54 23.97 15.54C25.6687 15.54 27.1247 15.9127 28.338 16.658C29.5687 17.4033 30.5047 18.478 31.146 19.882C31.8047 21.286 32.134 22.9587 32.134 24.9C32.134 26.8413 31.8047 28.514 31.146 29.918C30.5047 31.322 29.5687 32.3967 28.338 33.142C27.1247 33.8873 25.6687 34.26 23.97 34.26ZM23.97 31.296C25.3567 31.296 26.44 30.7327 27.22 29.606C28.0173 28.462 28.416 26.8933 28.416 24.9C28.416 22.9067 28.0173 21.3467 27.22 20.22C26.44 19.076 25.3567 18.504 23.97 18.504C22.6007 18.504 21.5173 19.076 20.72 20.22C19.94 21.3467 19.55 22.9067 19.55 24.9C19.55 26.8933 19.94 28.462 20.72 29.606C21.5173 30.7327 22.6007 31.296 23.97 31.296Z" fill="white"/>
</svg>
