<svg width="108" height="64" viewBox="0 0 108 64" xmlns="http://www.w3.org/2000/svg">
<circle cx="32" cy="32" r="32" fill="#587BAB"/>
<circle cx="76" cy="32" r="32" fill="#587BAB"/>
<path d="M47.04 43.32C44.9707 43.32 43.1787 42.8613 41.664 41.944C40.1493 41.0267 38.9867 39.704 38.176 37.976C37.3867 36.248 36.992 34.1893 36.992 31.8C36.992 29.4107 37.3867 27.352 38.176 25.624C38.9867 23.896 40.1493 22.5733 41.664 21.656C43.1787 20.7387 44.9707 20.28 47.04 20.28C49.1307 20.28 50.9227 20.7387 52.416 21.656C53.9307 22.5733 55.0827 23.896 55.872 25.624C56.6827 27.352 57.088 29.4107 57.088 31.8C57.088 34.1893 56.6827 36.248 55.872 37.976C55.0827 39.704 53.9307 41.0267 52.416 41.944C50.9227 42.8613 49.1307 43.32 47.04 43.32ZM47.04 39.672C48.7467 39.672 50.08 38.9787 51.04 37.592C52.0213 36.184 52.512 34.2533 52.512 31.8C52.512 29.3467 52.0213 27.4267 51.04 26.04C50.08 24.632 48.7467 23.928 47.04 23.928C45.3547 23.928 44.0213 24.632 43.04 26.04C42.08 27.4267 41.6 29.3467 41.6 31.8C41.6 34.2533 42.08 36.184 43.04 37.592C44.0213 38.9787 45.3547 39.672 47.04 39.672ZM59.6298 45.272C60.5471 44.6533 61.5071 43.8747 62.5098 42.936C63.5338 41.976 64.3978 40.952 65.1018 39.864C65.8271 38.7547 66.1898 37.72 66.1898 36.76C66.1898 36.2907 66.0298 35.9173 65.7098 35.64C65.3898 35.3413 64.9418 35.192 64.3658 35.192C63.2138 35.192 62.1791 35.832 61.2618 37.112L59.1818 35C59.7578 34.0187 60.5364 33.272 61.5178 32.76C62.4991 32.2267 63.5871 31.96 64.7818 31.96C66.5524 31.96 67.9178 32.376 68.8778 33.208C69.8591 34.0187 70.3498 35.16 70.3498 36.632C70.3498 37.7413 69.9124 38.9787 69.0378 40.344C68.1844 41.688 66.8938 43.192 65.1658 44.856H70.7658V47.864H59.6298V45.272Z" fill="white"/>
</svg>
