<svg width="64" height="58" viewBox="0 0 64 58" xmlns="http://www.w3.org/2000/svg">
<circle cx="31" cy="34" r="24" fill="#587BAB"/>
<path d="M21.97 44.26C20.2887 44.26 18.8327 43.8873 17.602 43.142C16.3713 42.3967 15.4267 41.322 14.768 39.918C14.1267 38.514 13.806 36.8413 13.806 34.9C13.806 32.9587 14.1267 31.286 14.768 29.882C15.4267 28.478 16.3713 27.4033 17.602 26.658C18.8327 25.9127 20.2887 25.54 21.97 25.54C23.6687 25.54 25.1247 25.9127 26.338 26.658C27.5687 27.4033 28.5047 28.478 29.146 29.882C29.8047 31.286 30.134 32.9587 30.134 34.9C30.134 36.8413 29.8047 38.514 29.146 39.918C28.5047 41.322 27.5687 42.3967 26.338 43.142C25.1247 43.8873 23.6687 44.26 21.97 44.26ZM21.97 41.296C23.3567 41.296 24.44 40.7327 25.22 39.606C26.0173 38.462 26.416 36.8933 26.416 34.9C26.416 32.9067 26.0173 31.3467 25.22 30.22C24.44 29.076 23.3567 28.504 21.97 28.504C20.6007 28.504 19.5173 29.076 18.72 30.22C17.94 31.3467 17.55 32.9067 17.55 34.9C17.55 36.8933 17.94 38.462 18.72 39.606C19.5173 40.7327 20.6007 41.296 21.97 41.296ZM32.1992 36.486C32.9445 35.9833 33.7245 35.3507 34.5392 34.588C35.3712 33.808 36.0732 32.976 36.6452 32.092C37.2345 31.1907 37.5292 30.35 37.5292 29.57C37.5292 29.1887 37.3992 28.8853 37.1392 28.66C36.8792 28.4173 36.5152 28.296 36.0472 28.296C35.1112 28.296 34.2705 28.816 33.5252 29.856L31.8352 28.14C32.3032 27.3427 32.9358 26.736 33.7332 26.32C34.5305 25.8867 35.4145 25.67 36.3852 25.67C37.8238 25.67 38.9332 26.008 39.7132 26.684C40.5105 27.3427 40.9092 28.27 40.9092 29.466C40.9092 30.3673 40.5538 31.3727 39.8432 32.482C39.1498 33.574 38.1012 34.796 36.6972 36.148H41.2472V38.592H32.1992V36.486ZM43.033 33.236V31.468H50.547V33.236H43.033Z" fill="white"/>
<circle cx="12" cy="12" r="12" fill="#EA9F2E"/>
<circle cx="52" cy="12" r="12" fill="#EA9F2E"/>
</svg>
