<svg width="64" height="58" viewBox="0 0 64 58" xmlns="http://www.w3.org/2000/svg">
<circle cx="32" cy="34" r="24" fill="#587BAB"/>
<path d="M22.97 44.26C21.2887 44.26 19.8327 43.8873 18.602 43.142C17.3713 42.3967 16.4267 41.322 15.768 39.918C15.1267 38.514 14.806 36.8413 14.806 34.9C14.806 32.9587 15.1267 31.286 15.768 29.882C16.4267 28.478 17.3713 27.4033 18.602 26.658C19.8327 25.9127 21.2887 25.54 22.97 25.54C24.6687 25.54 26.1247 25.9127 27.338 26.658C28.5687 27.4033 29.5047 28.478 30.146 29.882C30.8047 31.286 31.134 32.9587 31.134 34.9C31.134 36.8413 30.8047 38.514 30.146 39.918C29.5047 41.322 28.5687 42.3967 27.338 43.142C26.1247 43.8873 24.6687 44.26 22.97 44.26ZM22.97 41.296C24.3567 41.296 25.44 40.7327 26.22 39.606C27.0173 38.462 27.416 36.8933 27.416 34.9C27.416 32.9067 27.0173 31.3467 26.22 30.22C25.44 29.076 24.3567 28.504 22.97 28.504C21.6007 28.504 20.5173 29.076 19.72 30.22C18.94 31.3467 18.55 32.9067 18.55 34.9C18.55 36.8933 18.94 38.462 19.72 39.606C20.5173 40.7327 21.6007 41.296 22.97 41.296ZM33.1992 36.486C33.9445 35.9833 34.7245 35.3507 35.5392 34.588C36.3712 33.808 37.0732 32.976 37.6452 32.092C38.2345 31.1907 38.5292 30.35 38.5292 29.57C38.5292 29.1887 38.3992 28.8853 38.1392 28.66C37.8792 28.4173 37.5152 28.296 37.0472 28.296C36.1112 28.296 35.2705 28.816 34.5252 29.856L32.8352 28.14C33.3032 27.3427 33.9358 26.736 34.7332 26.32C35.5305 25.8867 36.4145 25.67 37.3852 25.67C38.8238 25.67 39.9332 26.008 40.7132 26.684C41.5105 27.3427 41.9092 28.27 41.9092 29.466C41.9092 30.3673 41.5538 31.3727 40.8432 32.482C40.1498 33.574 39.1012 34.796 37.6972 36.148H42.2472V38.592H33.1992V36.486ZM44.033 33.236V31.468H51.547V33.236H44.033Z" fill="white"/>
<circle cx="12" cy="12" r="12" fill="#EA9F2E"/>
<circle cx="52" cy="12" r="12" fill="#EA9F2E"/>
</svg>
