<svg width="80" height="114" viewBox="0 0 80 114" xmlns="http://www.w3.org/2000/svg">
<path d="M40.5526 0.00362184C18.4791 -0.295101 0 17.9243 0 40C0 48.7986 2.84309 56.9321 7.6576 63.5365C15.3839 76.401 19.054 82.3944 20.162 90.2476C20.6369 93.6143 23.5139 96.1206 26.9139 96.1206H53.0861C56.4863 96.1206 59.3631 93.6143 59.838 90.2476C60.9458 82.3949 64.6159 76.401 72.3424 63.5365C77.1569 56.9321 80 48.7989 80 40C79.9998 18.093 62.3894 0.299433 40.5526 0.00362184Z" fill="#67647E"/>
<path fill-rule="evenodd" clip-rule="evenodd" d="M13.971 64.2417C19.2361 76.6083 21.7538 82.5219 22.5238 90.2243C22.8603 93.5902 24.8987 96.0958 27.3082 96.096H26.3336C23.1913 95.8298 20.6096 93.4209 20.162 90.2475C19.075 82.5435 15.5224 76.6293 8.0936 64.2623C7.94973 64.0228 7.80439 63.7809 7.6576 63.5364C2.84309 56.932 0 48.7985 0 39.9999C0 22.1847 12.0347 6.88091 28.2811 1.79441C16.7676 6.87733 8.23795 22.1768 8.23795 39.9895C8.23795 48.7861 10.2524 56.9173 13.6638 63.52C13.7672 63.763 13.8696 64.0035 13.971 64.2417Z" fill="black" fill-opacity="0.1"/>
<path d="M26 105H54V106C54 110.418 50.4183 114 46 114H34C29.5817 114 26 110.418 26 106V105Z" fill="#67647E"/>
<rect x="23.0133" y="98.0374" width="33.9734" height="7.76534" rx="3.88267" fill="#868686"/>
<rect x="20.1013" y="94.1548" width="39.7974" height="7.76534" rx="3.88267" fill="#A8A8A8"/>
</svg>
