<svg width="72" height="102" viewBox="0 0 72 102" xmlns="http://www.w3.org/2000/svg">
<path d="M36.4973 0.00325291C16.6312 -0.265042 0 16.0985 0 35.9256C0 43.8279 2.55878 51.1329 6.89184 57.0646C13.8455 68.6187 17.1486 74.0016 18.1458 81.0549C18.5732 84.0787 21.1625 86.3297 24.2226 86.3297H47.7774C50.8377 86.3297 53.4268 84.0787 53.8542 81.0549C54.8512 74.0021 58.1543 68.6187 65.1082 57.0646C69.4412 51.1329 72 43.8282 72 35.9256C71.9998 16.25 56.1505 0.268932 36.4973 0.00325291Z" fill="#FFC876"/>
<path fill-rule="evenodd" clip-rule="evenodd" d="M12.5739 57.6979C17.3125 68.8049 19.5784 74.1161 20.2715 81.034C20.5743 84.057 22.4089 86.3074 24.5774 86.3076H23.7001C20.8721 86.0684 18.5486 83.9049 18.1458 81.0548C17.1675 74.1356 13.9702 68.8238 7.28423 57.7165C7.15475 57.5014 7.02395 57.2841 6.89184 57.0646C2.55878 51.1329 0 43.8279 0 35.9255C0 19.9249 10.8313 6.17995 25.4531 1.6116C15.0909 6.17674 7.41418 19.9179 7.41418 35.9161C7.41418 43.8167 9.22722 51.1196 12.2974 57.0498C12.3905 57.268 12.4827 57.4841 12.5739 57.6979Z" fill="black" fill-opacity="0.1"/>
<path d="M23 94H49V94C49 98.4183 45.4183 102 41 102H31C26.5817 102 23 98.4183 23 94V94Z" fill="#67647E"/>
<rect x="20.712" y="88.0513" width="30.576" height="6.97437" rx="3.48718" fill="#868686"/>
<rect x="18.0912" y="84.5641" width="35.8176" height="6.97435" rx="3.48717" fill="#A8A8A8"/>
</svg>
