<svg width="646" height="364" viewBox="0 0 646 364" xmlns="http://www.w3.org/2000/svg">
<rect x="11" y="53" width="48" height="280" fill="#363446"/>
<path fill-rule="evenodd" clip-rule="evenodd" d="M33 0H613V53H609V4H37V53H33V0Z" fill="#67647E"/>
<rect x="307" y="53" width="32" height="280" fill="#428267"/>
<rect x="587" y="53" width="48" height="280" fill="#363446"/>
<rect x="307" y="85" width="32" height="24" fill="#53A381"/>
<rect x="307" y="133" width="32" height="24" fill="#53A381"/>
<rect x="307" y="181" width="32" height="24" fill="#53A381"/>
<rect x="307" y="229" width="32" height="24" fill="#53A381"/>
<rect x="307" y="277" width="32" height="24" fill="#53A381"/>
<path d="M16.9927 357.912H12.6547L12.0247 360H9.32471L13.6807 347.4H15.9667L20.3227 360H17.6227L16.9927 357.912ZM16.3627 355.842L14.8327 350.802L13.2847 355.842H16.3627Z" fill="#363446"/>
<path d="M21.432 353.376C21.432 352.284 21.408 351.492 21.36 351H23.52C23.58 351.504 23.61 352.026 23.61 352.566H23.664C23.88 352.038 24.258 351.618 24.798 351.306C25.35 350.982 25.962 350.82 26.634 350.82C27.666 350.82 28.446 351.168 28.974 351.864C29.502 352.56 29.766 353.586 29.766 354.942V360H27.48V354.924C27.48 354.144 27.354 353.574 27.102 353.214C26.85 352.854 26.448 352.674 25.896 352.674C25.26 352.674 24.738 352.902 24.33 353.358C23.934 353.802 23.736 354.378 23.736 355.086V360H21.432V353.376Z" fill="#363446"/>
<path d="M35.9305 360.18C34.4785 360.18 33.3445 359.766 32.5285 358.938C31.7125 358.11 31.3045 356.964 31.3045 355.5C31.3045 354.036 31.7125 352.89 32.5285 352.062C33.3445 351.234 34.4785 350.82 35.9305 350.82C37.3825 350.82 38.5165 351.234 39.3325 352.062C40.1605 352.89 40.5745 354.036 40.5745 355.5C40.5745 356.964 40.1605 358.11 39.3325 358.938C38.5165 359.766 37.3825 360.18 35.9305 360.18ZM35.9305 358.47C36.6625 358.47 37.2385 358.206 37.6585 357.678C38.0785 357.15 38.2885 356.424 38.2885 355.5C38.2885 354.576 38.0785 353.85 37.6585 353.322C37.2385 352.794 36.6625 352.53 35.9305 352.53C35.1985 352.53 34.6225 352.794 34.2025 353.322C33.7945 353.85 33.5905 354.576 33.5905 355.5C33.5905 356.424 33.7945 357.15 34.2025 357.678C34.6225 358.206 35.1985 358.47 35.9305 358.47Z" fill="#363446"/>
<path d="M45.4364 360.18C44.2604 360.18 43.3304 359.754 42.6464 358.902C41.9744 358.038 41.6384 356.856 41.6384 355.356C41.6384 354.444 41.7944 353.646 42.1064 352.962C42.4184 352.278 42.8624 351.75 43.4384 351.378C44.0264 351.006 44.7104 350.82 45.4904 350.82C46.0184 350.82 46.4804 350.91 46.8764 351.09C47.2844 351.27 47.6384 351.546 47.9384 351.918H47.9744V346.644H50.2604V357.606C50.2604 358.854 50.2784 359.652 50.3144 360H48.1544C48.1424 359.796 48.1364 359.4 48.1364 358.812H48.1004C47.8244 359.22 47.4404 359.55 46.9484 359.802C46.4684 360.054 45.9644 360.18 45.4364 360.18ZM45.8864 358.416C46.5224 358.416 47.0264 358.236 47.3984 357.876C47.7824 357.504 47.9744 357.018 47.9744 356.418V354.564C47.9744 353.976 47.7764 353.49 47.3804 353.106C46.9844 352.722 46.4864 352.53 45.8864 352.53C45.2504 352.53 44.7644 352.776 44.4284 353.268C44.0924 353.76 43.9244 354.468 43.9244 355.392C43.9244 356.364 44.0924 357.114 44.4284 357.642C44.7644 358.158 45.2504 358.416 45.8864 358.416Z" fill="#363446"/>
<path d="M60.3875 356.346H54.1235C54.3155 357.618 55.0535 358.254 56.3375 358.254C56.8655 358.254 57.3215 358.164 57.7055 357.984C58.1015 357.804 58.4855 357.504 58.8575 357.084L60.0995 358.272C59.7515 358.848 59.2235 359.31 58.5155 359.658C57.8195 360.006 57.0515 360.18 56.2115 360.18C54.8075 360.18 53.7155 359.772 52.9355 358.956C52.1555 358.128 51.7655 356.988 51.7655 355.536C51.7655 354.072 52.1555 352.92 52.9355 352.08C53.7275 351.24 54.8135 350.82 56.1935 350.82C57.5135 350.82 58.5395 351.234 59.2715 352.062C60.0155 352.89 60.3875 354.042 60.3875 355.518V356.346ZM58.1375 354.672C58.1375 354.06 57.9575 353.58 57.5975 353.232C57.2495 352.872 56.7635 352.692 56.1395 352.692C55.5755 352.692 55.1195 352.878 54.7715 353.25C54.4235 353.61 54.2015 354.12 54.1055 354.78H58.1375V354.672Z" fill="#363446"/>
<path d="M585.838 360L582.508 354.348L580.924 356.31V360H578.332V347.4H580.924V352.962L585.1 347.4H588.124L584.2 352.26L588.718 360H585.838Z" fill="#363446"/>
<path d="M591.994 360.18C591.406 360.18 590.878 360.06 590.41 359.82C589.942 359.568 589.576 359.226 589.312 358.794C589.048 358.35 588.916 357.858 588.916 357.318C588.916 356.394 589.282 355.686 590.014 355.194C590.746 354.702 591.79 354.456 593.146 354.456H594.55V354.078C594.55 353.598 594.406 353.232 594.118 352.98C593.842 352.716 593.446 352.584 592.93 352.584C592.39 352.584 591.874 352.68 591.382 352.872C590.89 353.064 590.488 353.328 590.176 353.664L589.168 352.332C589.66 351.864 590.242 351.498 590.914 351.234C591.586 350.958 592.282 350.82 593.002 350.82C594.202 350.82 595.144 351.102 595.828 351.666C596.512 352.23 596.854 353.01 596.854 354.006V358.11C596.854 358.386 596.872 358.71 596.908 359.082C596.956 359.454 597.01 359.76 597.07 360H595.036C594.964 359.844 594.91 359.694 594.874 359.55C594.838 359.394 594.808 359.184 594.784 358.92H594.748C594.064 359.76 593.146 360.18 591.994 360.18ZM592.552 358.452C593.128 358.452 593.602 358.308 593.974 358.02C594.358 357.72 594.55 357.342 594.55 356.886V355.986H593.074C592.462 355.986 591.988 356.1 591.652 356.328C591.328 356.556 591.166 356.886 591.166 357.318C591.166 357.678 591.286 357.96 591.526 358.164C591.778 358.356 592.12 358.452 592.552 358.452Z" fill="#363446"/>
<path d="M602.691 360.18C601.767 360.18 601.047 359.928 600.531 359.424C600.015 358.92 599.757 358.212 599.757 357.3V352.71H598.119V351H599.757V348.678L601.989 348.03H602.061V351H604.671V352.71H602.061V356.958C602.061 357.474 602.181 357.852 602.421 358.092C602.661 358.332 603.027 358.452 603.519 358.452C603.987 358.452 604.425 358.38 604.833 358.236L604.941 359.802C604.401 360.054 603.651 360.18 602.691 360.18Z" fill="#363446"/>
<path d="M606.326 346.644H608.63V352.062C608.906 351.678 609.29 351.378 609.782 351.162C610.286 350.934 610.832 350.82 611.42 350.82C612.44 350.82 613.256 351.156 613.868 351.828C614.492 352.5 614.804 353.424 614.804 354.6V360H612.5V354.762C612.5 354.066 612.35 353.52 612.05 353.124C611.75 352.728 611.336 352.53 610.808 352.53C610.148 352.53 609.62 352.764 609.224 353.232C608.828 353.688 608.63 354.312 608.63 355.104V360H606.326V346.644Z" fill="#363446"/>
<path d="M620.877 360.18C619.425 360.18 618.291 359.766 617.475 358.938C616.659 358.11 616.251 356.964 616.251 355.5C616.251 354.036 616.659 352.89 617.475 352.062C618.291 351.234 619.425 350.82 620.877 350.82C622.329 350.82 623.463 351.234 624.279 352.062C625.107 352.89 625.521 354.036 625.521 355.5C625.521 356.964 625.107 358.11 624.279 358.938C623.463 359.766 622.329 360.18 620.877 360.18ZM620.877 358.47C621.609 358.47 622.185 358.206 622.605 357.678C623.025 357.15 623.235 356.424 623.235 355.5C623.235 354.576 623.025 353.85 622.605 353.322C622.185 352.794 621.609 352.53 620.877 352.53C620.145 352.53 619.569 352.794 619.149 353.322C618.741 353.85 618.537 354.576 618.537 355.5C618.537 356.424 618.741 357.15 619.149 357.678C619.569 358.206 620.145 358.47 620.877 358.47Z" fill="#363446"/>
<path d="M630.383 360.18C629.207 360.18 628.277 359.754 627.593 358.902C626.921 358.038 626.585 356.856 626.585 355.356C626.585 354.444 626.741 353.646 627.053 352.962C627.365 352.278 627.809 351.75 628.385 351.378C628.973 351.006 629.657 350.82 630.437 350.82C630.965 350.82 631.427 350.91 631.823 351.09C632.231 351.27 632.585 351.546 632.885 351.918H632.921V346.644H635.207V357.606C635.207 358.854 635.225 359.652 635.261 360H633.101C633.089 359.796 633.083 359.4 633.083 358.812H633.047C632.771 359.22 632.387 359.55 631.895 359.802C631.415 360.054 630.911 360.18 630.383 360.18ZM630.833 358.416C631.469 358.416 631.973 358.236 632.345 357.876C632.729 357.504 632.921 357.018 632.921 356.418V354.564C632.921 353.976 632.723 353.49 632.327 353.106C631.931 352.722 631.433 352.53 630.833 352.53C630.197 352.53 629.711 352.776 629.375 353.268C629.039 353.76 628.871 354.468 628.871 355.392C628.871 356.364 629.039 357.114 629.375 357.642C629.711 358.158 630.197 358.416 630.833 358.416Z" fill="#363446"/>
<path d="M645.334 356.346H639.07C639.262 357.618 640 358.254 641.284 358.254C641.812 358.254 642.268 358.164 642.652 357.984C643.048 357.804 643.432 357.504 643.804 357.084L645.046 358.272C644.698 358.848 644.17 359.31 643.462 359.658C642.766 360.006 641.998 360.18 641.158 360.18C639.754 360.18 638.662 359.772 637.882 358.956C637.102 358.128 636.712 356.988 636.712 355.536C636.712 354.072 637.102 352.92 637.882 352.08C638.674 351.24 639.76 350.82 641.14 350.82C642.46 350.82 643.486 351.234 644.218 352.062C644.962 352.89 645.334 354.042 645.334 355.518V356.346ZM643.084 354.672C643.084 354.06 642.904 353.58 642.544 353.232C642.196 352.872 641.71 352.692 641.086 352.692C640.522 352.692 640.066 352.878 639.718 353.25C639.37 353.61 639.148 354.12 639.052 354.78H643.084V354.672Z" fill="#363446"/>
<path d="M244.702 347.4H253.072V349.47H247.294V352.35H252.442V354.42H247.294V357.93H253.072V360H244.702V347.4Z" fill="#363446"/>
<path d="M257.145 360.18C256.377 360.18 255.789 359.976 255.381 359.568C254.985 359.148 254.787 358.548 254.787 357.768V346.644H257.073V357.804C257.073 358.068 257.139 358.266 257.271 358.398C257.415 358.518 257.625 358.578 257.901 358.578C258.177 358.578 258.519 358.5 258.927 358.344L259.269 359.568C258.729 359.976 258.021 360.18 257.145 360.18Z" fill="#363446"/>
<path d="M267.828 356.346H261.564C261.756 357.618 262.494 358.254 263.778 358.254C264.306 358.254 264.762 358.164 265.146 357.984C265.542 357.804 265.926 357.504 266.298 357.084L267.54 358.272C267.192 358.848 266.664 359.31 265.956 359.658C265.26 360.006 264.492 360.18 263.652 360.18C262.248 360.18 261.156 359.772 260.376 358.956C259.596 358.128 259.206 356.988 259.206 355.536C259.206 354.072 259.596 352.92 260.376 352.08C261.168 351.24 262.254 350.82 263.634 350.82C264.954 350.82 265.98 351.234 266.712 352.062C267.456 352.89 267.828 354.042 267.828 355.518V356.346ZM265.578 354.672C265.578 354.06 265.398 353.58 265.038 353.232C264.69 352.872 264.204 352.692 263.58 352.692C263.016 352.692 262.56 352.878 262.212 353.25C261.864 353.61 261.642 354.12 261.546 354.78H265.578V354.672Z" fill="#363446"/>
<path d="M275.334 360L272.67 355.806L271.59 356.868V360H269.286V346.644H271.59V354.114L274.758 351H277.584L274.254 354.258L277.926 360H275.334Z" fill="#363446"/>
<path d="M282.771 360.18C281.847 360.18 281.127 359.928 280.611 359.424C280.095 358.92 279.837 358.212 279.837 357.3V352.71H278.199V351H279.837V348.678L282.069 348.03H282.141V351H284.751V352.71H282.141V356.958C282.141 357.474 282.261 357.852 282.501 358.092C282.741 358.332 283.107 358.452 283.599 358.452C284.067 358.452 284.505 358.38 284.913 358.236L285.021 359.802C284.481 360.054 283.731 360.18 282.771 360.18Z" fill="#363446"/>
<path d="M286.514 353.196C286.514 352.176 286.496 351.444 286.46 351H288.638C288.686 351.468 288.71 351.996 288.71 352.584V352.764H288.782C289.01 352.176 289.412 351.708 289.988 351.36C290.564 351 291.224 350.82 291.968 350.82C292.112 350.82 292.292 350.838 292.508 350.874V352.692C292.46 352.668 292.316 352.656 292.076 352.656C291.5 352.656 290.96 352.812 290.456 353.124C289.964 353.436 289.568 353.856 289.268 354.384C288.968 354.9 288.818 355.458 288.818 356.058V360H286.514V353.196Z" fill="#363446"/>
<path d="M297.723 360.18C296.271 360.18 295.137 359.766 294.321 358.938C293.505 358.11 293.097 356.964 293.097 355.5C293.097 354.036 293.505 352.89 294.321 352.062C295.137 351.234 296.271 350.82 297.723 350.82C299.175 350.82 300.309 351.234 301.125 352.062C301.953 352.89 302.367 354.036 302.367 355.5C302.367 356.964 301.953 358.11 301.125 358.938C300.309 359.766 299.175 360.18 297.723 360.18ZM297.723 358.47C298.455 358.47 299.031 358.206 299.451 357.678C299.871 357.15 300.081 356.424 300.081 355.5C300.081 354.576 299.871 353.85 299.451 353.322C299.031 352.794 298.455 352.53 297.723 352.53C296.991 352.53 296.415 352.794 295.995 353.322C295.587 353.85 295.383 354.576 295.383 355.5C295.383 356.424 295.587 357.15 295.995 357.678C296.415 358.206 296.991 358.47 297.723 358.47Z" fill="#363446"/>
<path d="M306.328 360.18C305.56 360.18 304.972 359.976 304.564 359.568C304.168 359.148 303.97 358.548 303.97 357.768V346.644H306.256V357.804C306.256 358.068 306.322 358.266 306.454 358.398C306.598 358.518 306.808 358.578 307.084 358.578C307.36 358.578 307.702 358.5 308.11 358.344L308.452 359.568C307.912 359.976 307.204 360.18 306.328 360.18Z" fill="#363446"/>
<path d="M316.669 351L313.231 360.414C312.859 361.422 312.343 362.178 311.683 362.682C311.035 363.198 310.255 363.456 309.343 363.456C308.863 363.456 308.371 363.39 307.867 363.258V361.44C308.011 361.488 308.191 361.53 308.407 361.566C308.623 361.602 308.815 361.62 308.983 361.62C309.511 361.62 309.961 361.434 310.333 361.062C310.717 360.702 311.059 360.126 311.359 359.334L308.011 351H310.459L312.439 356.76L314.221 351H316.669Z" fill="#363446"/>
<path d="M321.689 360.18C320.765 360.18 320.045 359.928 319.529 359.424C319.013 358.92 318.755 358.212 318.755 357.3V352.71H317.117V351H318.755V348.678L320.987 348.03H321.059V351H323.669V352.71H321.059V356.958C321.059 357.474 321.179 357.852 321.419 358.092C321.659 358.332 322.025 358.452 322.517 358.452C322.985 358.452 323.423 358.38 323.831 358.236L323.939 359.802C323.399 360.054 322.649 360.18 321.689 360.18Z" fill="#363446"/>
<path d="M325.324 353.394C325.324 352.194 325.3 351.396 325.252 351H327.268C327.328 351.48 327.358 352.002 327.358 352.566H327.394C327.586 352.026 327.934 351.6 328.438 351.288C328.942 350.976 329.53 350.82 330.202 350.82C330.85 350.82 331.402 350.964 331.858 351.252C332.314 351.528 332.62 351.912 332.776 352.404C333.016 351.912 333.382 351.528 333.874 351.252C334.366 350.964 334.918 350.82 335.53 350.82C336.526 350.82 337.306 351.144 337.87 351.792C338.446 352.428 338.734 353.31 338.734 354.438V360H336.448V354.69C336.448 354.054 336.31 353.562 336.034 353.214C335.758 352.854 335.38 352.674 334.9 352.674C334.372 352.674 333.946 352.86 333.622 353.232C333.31 353.592 333.154 354.084 333.154 354.708V360H330.886V354.762C330.886 354.102 330.754 353.592 330.49 353.232C330.226 352.86 329.854 352.674 329.374 352.674C328.858 352.674 328.432 352.872 328.096 353.268C327.772 353.652 327.61 354.15 327.61 354.762V360H325.324V353.394Z" fill="#363446"/>
<path d="M348.881 356.346H342.617C342.809 357.618 343.547 358.254 344.831 358.254C345.359 358.254 345.815 358.164 346.199 357.984C346.595 357.804 346.979 357.504 347.351 357.084L348.593 358.272C348.245 358.848 347.717 359.31 347.009 359.658C346.313 360.006 345.545 360.18 344.705 360.18C343.301 360.18 342.209 359.772 341.429 358.956C340.649 358.128 340.259 356.988 340.259 355.536C340.259 354.072 340.649 352.92 341.429 352.08C342.221 351.24 343.307 350.82 344.687 350.82C346.007 350.82 347.033 351.234 347.765 352.062C348.509 352.89 348.881 354.042 348.881 355.518V356.346ZM346.631 354.672C346.631 354.06 346.451 353.58 346.091 353.232C345.743 352.872 345.257 352.692 344.633 352.692C344.069 352.692 343.613 352.878 343.265 353.25C342.917 353.61 342.695 354.12 342.599 354.78H346.631V354.672Z" fill="#363446"/>
<path d="M350.302 353.394C350.302 352.194 350.278 351.396 350.23 351H352.246C352.306 351.48 352.336 352.002 352.336 352.566H352.372C352.564 352.026 352.912 351.6 353.416 351.288C353.92 350.976 354.508 350.82 355.18 350.82C355.828 350.82 356.38 350.964 356.836 351.252C357.292 351.528 357.598 351.912 357.754 352.404C357.994 351.912 358.36 351.528 358.852 351.252C359.344 350.964 359.896 350.82 360.508 350.82C361.504 350.82 362.284 351.144 362.848 351.792C363.424 352.428 363.712 353.31 363.712 354.438V360H361.426V354.69C361.426 354.054 361.288 353.562 361.012 353.214C360.736 352.854 360.358 352.674 359.878 352.674C359.35 352.674 358.924 352.86 358.6 353.232C358.288 353.592 358.132 354.084 358.132 354.708V360H355.864V354.762C355.864 354.102 355.732 353.592 355.468 353.232C355.204 352.86 354.832 352.674 354.352 352.674C353.836 352.674 353.41 352.872 353.074 353.268C352.75 353.652 352.588 354.15 352.588 354.762V360H350.302V353.394Z" fill="#363446"/>
<path d="M370.421 360.18C369.893 360.18 369.383 360.054 368.891 359.802C368.411 359.55 368.033 359.22 367.757 358.812H367.721C367.721 359.388 367.715 359.784 367.703 360H365.543C365.579 359.652 365.597 358.854 365.597 357.606V346.644H367.883V351.918H367.919C368.435 351.186 369.305 350.82 370.529 350.82C371.681 350.82 372.581 351.222 373.229 352.026C373.889 352.83 374.219 353.94 374.219 355.356C374.219 356.856 373.877 358.038 373.193 358.902C372.521 359.754 371.597 360.18 370.421 360.18ZM369.971 358.416C370.607 358.416 371.093 358.158 371.429 357.642C371.765 357.114 371.933 356.364 371.933 355.392C371.933 354.468 371.765 353.76 371.429 353.268C371.093 352.776 370.607 352.53 369.971 352.53C369.371 352.53 368.873 352.722 368.477 353.106C368.081 353.49 367.883 353.976 367.883 354.564V356.418C367.883 357.018 368.069 357.504 368.441 357.876C368.825 358.236 369.335 358.416 369.971 358.416Z" fill="#363446"/>
<path d="M375.67 353.196C375.67 352.176 375.652 351.444 375.616 351H377.794C377.842 351.468 377.866 351.996 377.866 352.584V352.764H377.938C378.166 352.176 378.568 351.708 379.144 351.36C379.72 351 380.38 350.82 381.124 350.82C381.268 350.82 381.448 350.838 381.664 350.874V352.692C381.616 352.668 381.472 352.656 381.232 352.656C380.656 352.656 380.116 352.812 379.612 353.124C379.12 353.436 378.724 353.856 378.424 354.384C378.124 354.9 377.974 355.458 377.974 356.058V360H375.67V353.196Z" fill="#363446"/>
<path d="M385.471 360.18C384.883 360.18 384.355 360.06 383.887 359.82C383.419 359.568 383.053 359.226 382.789 358.794C382.525 358.35 382.393 357.858 382.393 357.318C382.393 356.394 382.759 355.686 383.491 355.194C384.223 354.702 385.267 354.456 386.623 354.456H388.027V354.078C388.027 353.598 387.883 353.232 387.595 352.98C387.319 352.716 386.923 352.584 386.407 352.584C385.867 352.584 385.351 352.68 384.859 352.872C384.367 353.064 383.965 353.328 383.653 353.664L382.645 352.332C383.137 351.864 383.719 351.498 384.391 351.234C385.063 350.958 385.759 350.82 386.479 350.82C387.679 350.82 388.621 351.102 389.305 351.666C389.989 352.23 390.331 353.01 390.331 354.006V358.11C390.331 358.386 390.349 358.71 390.385 359.082C390.433 359.454 390.487 359.76 390.547 360H388.513C388.441 359.844 388.387 359.694 388.351 359.55C388.315 359.394 388.285 359.184 388.261 358.92H388.225C387.541 359.76 386.623 360.18 385.471 360.18ZM386.029 358.452C386.605 358.452 387.079 358.308 387.451 358.02C387.835 357.72 388.027 357.342 388.027 356.886V355.986H386.551C385.939 355.986 385.465 356.1 385.129 356.328C384.805 356.556 384.643 356.886 384.643 357.318C384.643 357.678 384.763 357.96 385.003 358.164C385.255 358.356 385.597 358.452 386.029 358.452Z" fill="#363446"/>
<path d="M392.226 353.376C392.226 352.284 392.202 351.492 392.154 351H394.314C394.374 351.504 394.404 352.026 394.404 352.566H394.458C394.674 352.038 395.052 351.618 395.592 351.306C396.144 350.982 396.756 350.82 397.428 350.82C398.46 350.82 399.24 351.168 399.768 351.864C400.296 352.56 400.56 353.586 400.56 354.942V360H398.274V354.924C398.274 354.144 398.148 353.574 397.896 353.214C397.644 352.854 397.242 352.674 396.69 352.674C396.054 352.674 395.532 352.902 395.124 353.358C394.728 353.802 394.53 354.378 394.53 355.086V360H392.226V353.376Z" fill="#363446"/>
</svg>
