<svg width="14" height="14" viewBox="0 0 14 14" xmlns="http://www.w3.org/2000/svg">
<path d="M6.99998 2.91671V0.583374L4.08331 3.50004L6.99998 6.41671V4.08337C7.92824 4.08337 8.81848 4.45212 9.47485 5.1085C10.1312 5.76488 10.5 6.65512 10.5 7.58337C10.5 8.51163 10.1312 9.40187 9.47485 10.0582C8.81848 10.7146 7.92824 11.0834 6.99998 11.0834C6.07172 11.0834 5.18148 10.7146 4.52511 10.0582C3.86873 9.40187 3.49998 8.51163 3.49998 7.58337H2.33331C2.33331 8.82105 2.82498 10.008 3.70015 10.8832C4.57532 11.7584 5.7623 12.25 6.99998 12.25C8.23766 12.25 9.42464 11.7584 10.2998 10.8832C11.175 10.008 11.6666 8.82105 11.6666 7.58337C11.6666 6.3457 11.175 5.15871 10.2998 4.28354C9.42464 3.40837 8.23766 2.91671 6.99998 2.91671V2.91671Z" fill="#363446"/>
</svg>
