<svg width="36" height="36" viewBox="0 0 36 36" xmlns="http://www.w3.org/2000/svg">
<path d="M7.07996 7.93497L8.95496 6.02997L35.58 32.625L33.705 34.53L7.07996 7.93497Z" fill="#C04352"/>
<path d="M21.0001 14.16L24.0001 17.16V12H21.0001V14.16ZM27.0001 1.5H18.0001V4.5H27.0001V1.5ZM33.0601 6.825L30.9301 8.955C28.6051 7.11 25.6801 6 22.5001 6C19.7551 6 17.2051 6.825 15.0751 8.25L17.2501 10.41C18.7951 9.525 20.5951 9 22.5001 9C25.2848 9 27.9556 10.1062 29.9247 12.0754C31.8938 14.0445 33.0001 16.7152 33.0001 19.5C33.0001 21.405 32.4751 23.205 31.5901 24.75L33.7501 26.91C35.1751 24.795 36.0001 22.245 36.0001 19.5C36.0001 16.32 34.8901 13.395 33.0451 11.085L35.1751 8.955L33.0601 6.825Z" fill="white"/>
<path d="M15.0754 26.9246C17.0445 28.8938 19.7152 30 22.5 30C24.42 30 26.25 29.475 27.75 28.56L30 30.75C27.825 32.175 25.26 33 22.5 33C18.9196 33 15.4858 31.5777 12.9541 29.0459C10.4223 26.5142 9 23.0804 9 19.5C9 16.74 9.825 14.175 11.25 12.045L13.425 14.25C12.525 15.75 12 17.58 12 19.5C12 22.2848 13.1062 24.9555 15.0754 26.9246Z" fill="white"/>
<path d="M0.43934 28.0607C0.720644 28.342 1.10218 28.5 1.5 28.5H9C8.31 27.57 7.71 26.565 7.245 25.5H1.5C1.10218 25.5 0.720644 25.658 0.43934 25.9393C0.158035 26.2206 0 26.6022 0 27C0 27.3978 0.158035 27.7794 0.43934 28.0607Z" fill="white"/>
<path d="M1.93934 20.5607C2.22064 20.842 2.60218 21 3 21H6.075L6 19.5L6.075 18H3C2.60218 18 2.22064 18.158 1.93934 18.4393C1.65804 18.7206 1.5 19.1022 1.5 19.5C1.5 19.8978 1.65804 20.2794 1.93934 20.5607Z" fill="white"/>
<path d="M7.09624 10.5H4.5C4.10218 10.5 3.72064 10.658 3.43934 10.9393C3.15804 11.2206 3 11.6022 3 12C3 12.3978 3.15804 12.7794 3.43934 13.0607C3.72064 13.342 4.10218 13.5 4.5 13.5H7.245C7.52695 12.8542 7.85854 12.2305 8.22974 11.6322L7.09624 10.5Z" fill="white"/>
</svg>
