<svg width="36" height="36" viewBox="0 0 36 36" xmlns="http://www.w3.org/2000/svg">
<path d="M22.5 30C19.7152 30 17.0445 28.8938 15.0754 26.9246C13.1062 24.9555 12 22.2848 12 19.5C12 16.7152 13.1062 14.0445 15.0754 12.0754C17.0445 10.1062 19.7152 9 22.5 9C25.2848 9 27.9555 10.1062 29.9246 12.0754C31.8938 14.0445 33 16.7152 33 19.5C33 22.2848 31.8938 24.9555 29.9246 26.9246C27.9555 28.8938 25.2848 30 22.5 30ZM33.045 11.085L35.175 8.955C34.5 8.19 33.825 7.5 33.06 6.84L30.93 9C28.605 7.11 25.68 6 22.5 6C18.9196 6 15.4858 7.42232 12.9541 9.95406C10.4223 12.4858 9 15.9196 9 19.5C9 23.0804 10.4223 26.5142 12.9541 29.0459C15.4858 31.5777 18.9196 33 22.5 33C30 33 36 26.955 36 19.5C36 16.32 34.89 13.395 33.045 11.085ZM21 21H24V12H21V21ZM27 1.5H18V4.5H27V1.5Z" fill="white"/>
<path d="M0.43934 28.0607C0.720644 28.342 1.10218 28.5 1.5 28.5H9C8.31 27.57 7.71 26.565 7.245 25.5H1.5C1.10218 25.5 0.720644 25.658 0.43934 25.9393C0.158035 26.2206 0 26.6022 0 27C0 27.3978 0.158035 27.7794 0.43934 28.0607Z" fill="white"/>
<path d="M1.93934 20.5607C2.22064 20.842 2.60218 21 3 21H6.075L6 19.5L6.075 18H3C2.60218 18 2.22064 18.158 1.93934 18.4393C1.65804 18.7206 1.5 19.1022 1.5 19.5C1.5 19.8978 1.65804 20.2794 1.93934 20.5607Z" fill="white"/>
<path d="M3.43934 13.0607C3.72064 13.342 4.10218 13.5 4.5 13.5H7.245C7.71 12.435 8.31 11.43 9 10.5H4.5C4.10218 10.5 3.72064 10.658 3.43934 10.9393C3.15804 11.2206 3 11.6022 3 12C3 12.3978 3.15804 12.7794 3.43934 13.0607Z" fill="white"/>
</svg>
