<svg width="36" height="36" viewBox="0 0 36 36" xmlns="http://www.w3.org/2000/svg">
<path d="M19 6L15.865 9.135L19 12.27V6ZM29.5 18C29.5 19.41 29.2 20.73 28.69 21.96L30.955 24.225C31.93 22.365 32.5 20.25 32.5 18C32.5 11.58 28 6.21 22 4.845V7.935C26.335 9.225 29.5 13.245 29.5 18ZM25.75 18C25.75 15.345 24.25 13.065 22 11.955V15.27L25.675 18.945C25.75 18.645 25.75 18.315 25.75 18Z" fill="white"/>
<path d="M5.5 6.405L7.405 4.5L32.5 29.595L30.595 31.5L5.5 6.405Z" fill="#DF6A78"/>
<path d="M5.5 13.5H12.595L19 19.905V30L11.5 22.5H5.5V13.5Z" fill="white"/>
<path d="M22 28.05C23.245 27.69 24.37 27.06 25.375 26.295L27.52 28.44C25.945 29.73 24.07 30.675 22 31.155V28.05Z" fill="white"/>
</svg>
